<svg width="20" height="20" viewBox="0 0 20 20" fill="none" xmlns="http://www.w3.org/2000/svg">
<path fill-rule="evenodd" clip-rule="evenodd" d="M6.6665 17.5V10C6.6665 9.53976 7.0396 9.16666 7.49984 9.16666H12.4998C12.9601 9.16666 13.3332 9.53976 13.3332 10V17.5H15.8332C16.2934 17.5 16.6665 17.1269 16.6665 16.6667V7.90757L9.99984 2.72238L3.33317 7.90757V16.6667C3.33317 17.1269 3.70627 17.5 4.1665 17.5H6.6665ZM8.33317 17.5H11.6665V10.8333H8.33317V17.5ZM1.98822 6.8422L9.48822 1.00887C9.78915 0.774815 10.2105 0.774815 10.5115 1.00887L18.0115 6.8422C18.2144 7.00008 18.3332 7.24284 18.3332 7.49999V16.6667C18.3332 18.0474 17.2139 19.1667 15.8332 19.1667H4.1665C2.78579 19.1667 1.6665 18.0474 1.6665 16.6667V7.49999C1.6665 7.24284 1.78523 7.00008 1.98822 6.8422Z" fill="#6D5FFE" fill-opacity="0.8"/>
</svg>
