<svg width="16" height="18" viewBox="0 0 16 18" fill="none" xmlns="http://www.w3.org/2000/svg">
<path fill-rule="evenodd" clip-rule="evenodd" d="M15.4922 16.5C15.4922 16.9602 15.1568 17.3333 14.743 17.3333H1.25702C0.843241 17.3333 0.507804 16.9602 0.507804 16.5C0.341311 12.6111 2.83871 10.6667 8 10.6667C13.1613 10.6667 15.6587 12.6111 15.4922 16.5ZM8 12.3333C4.11111 12.3333 2.16667 13.4444 2.16667 15.6667H13.8333C13.8333 13.4444 11.8889 12.3333 8 12.3333ZM8 9C5.69881 9 3.83333 7.13452 3.83333 4.83334C3.83333 2.53215 5.69881 0.666672 8 0.666672C10.3012 0.666672 12.1667 2.53215 12.1667 4.83334C12.1667 7.13452 10.3012 9 8 9ZM8 7.33334C9.38071 7.33334 10.5 6.21405 10.5 4.83334C10.5 3.45263 9.38071 2.33334 8 2.33334C6.61929 2.33334 5.5 3.45263 5.5 4.83334C5.5 6.21405 6.61929 7.33334 8 7.33334Z" fill="#6D5FFE"/>
</svg>
